<svg width="138" height="56" viewBox="0 0 138 56" fill="none" xmlns="http://www.w3.org/2000/svg">
    <path d="M10.832 26.576C10.832 25.38 11.1267 24.2967 11.716 23.326C12.3053 22.3553 13.1113 21.584 14.134 21.012C15.1567 20.44 16.3007 20.154 17.566 20.154C18.97 20.154 20.1747 20.492 21.18 21.168C22.2027 21.844 22.9913 22.8147 23.546 24.08C24.1007 25.3453 24.378 26.862 24.378 28.63C24.378 31.9927 23.728 34.558 22.428 36.326C21.1453 38.1113 19.412 39.004 17.228 39.004C16.0667 39.004 14.992 38.7527 14.004 38.25C13.016 37.7473 12.184 37.028 11.508 36.092L13.51 33.908C13.926 34.5493 14.4633 35.052 15.122 35.416C15.798 35.7973 16.5173 35.988 17.28 35.988C18.4413 35.988 19.3687 35.5287 20.062 34.61C20.7553 33.674 21.1107 32.374 21.128 30.71C20.7813 31.334 20.2613 31.828 19.568 32.192C18.892 32.556 18.1207 32.738 17.254 32.738C16.0407 32.738 14.9487 32.4693 13.978 31.932C13.0073 31.3773 12.236 30.6407 11.664 29.722C11.1093 28.786 10.832 27.7373 10.832 26.576ZM17.566 23.092C16.942 23.092 16.37 23.2567 15.85 23.586C15.3473 23.898 14.94 24.3227 14.628 24.86C14.316 25.38 14.16 25.952 14.16 26.576C14.16 27.2 14.3073 27.772 14.602 28.292C14.914 28.7947 15.33 29.202 15.85 29.514C16.37 29.8087 16.942 29.956 17.566 29.956C18.19 29.956 18.7533 29.8087 19.256 29.514C19.776 29.202 20.192 28.7947 20.504 28.292C20.816 27.772 20.972 27.2 20.972 26.576C20.972 25.952 20.816 25.38 20.504 24.86C20.192 24.3227 19.776 23.898 19.256 23.586C18.736 23.2567 18.1727 23.092 17.566 23.092Z"
          fill="#2196F3"/>
    <path d="M35.8405 34.298C35.3725 34.506 34.7919 34.714 34.0985 34.922C33.4225 35.13 32.7205 35.234 31.9925 35.234C31.3512 35.234 30.7619 35.1213 30.2245 34.896C29.6872 34.6707 29.2539 34.3153 28.9245 33.83C28.6125 33.3273 28.4565 32.6773 28.4565 31.88V24.054H26.6625V21.376H28.4565V16.956H31.9405V21.376H34.8005V24.054H31.9405V30.71C31.9405 31.178 32.0619 31.516 32.3045 31.724C32.5645 31.932 32.8765 32.036 33.2405 32.036C33.6045 32.036 33.9599 31.9753 34.3065 31.854C34.6532 31.7327 34.9305 31.6287 35.1385 31.542L35.8405 34.298Z"
          fill="#2196F3"/>
    <path d="M51.0971 35H47.6131V27.356C47.6131 26.2987 47.4051 25.51 46.9891 24.99C46.5904 24.47 46.0357 24.21 45.3251 24.21C44.8917 24.21 44.4411 24.3313 43.9731 24.574C43.5224 24.8167 43.1064 25.1547 42.7251 25.588C42.3611 26.004 42.0924 26.4893 41.9191 27.044V35H38.4351V16.02H41.9191V23.898C42.4217 23.0313 43.1064 22.3553 43.9731 21.87C44.8397 21.3847 45.7844 21.142 46.8071 21.142C47.9684 21.142 48.8611 21.402 49.4851 21.922C50.1091 22.442 50.5337 23.1093 50.7591 23.924C50.9844 24.7387 51.0971 25.5967 51.0971 26.498V35Z"
          fill="#2196F3"/>
    <path d="M28 56C12.536 56 0 43.464 0 28C0 12.536 12.536 0 28 0C35.3333 0 42 1.5 47 7.43286C47.1739 7.63919 47.3332 7.82456 47.478 7.99014C48.9305 9.27422 49.0195 9.75198 47.478 7.99014C45.142 5.9249 39.2791 1.77387 31 1.5C17.0895 1.03985 4.36062 13.3651 4.5 28C4.63807 42.4975 16.5019 54.0315 31 54C37.5988 53.9856 41.7568 52.5738 47 48.5672C42.0082 53.1808 35.3333 56 28 56Z"
          fill="#2196F3"/>
    <path d="M54.924 35V16.54H62.75C63.5993 16.54 64.3793 16.7133 65.09 17.06C65.818 17.4067 66.442 17.8747 66.962 18.464C67.482 19.0533 67.8893 19.712 68.184 20.44C68.4787 21.168 68.626 21.9133 68.626 22.676C68.626 23.716 68.3833 24.704 67.898 25.64C67.4127 26.576 66.7367 27.3387 65.87 27.928C65.0207 28.5173 64.024 28.812 62.88 28.812H58.512V35H54.924ZM58.512 25.666H62.672C63.3307 25.666 63.8767 25.3973 64.31 24.86C64.7607 24.3053 64.986 23.5773 64.986 22.676C64.986 21.7227 64.7347 20.986 64.232 20.466C63.7293 19.946 63.1573 19.686 62.516 19.686H58.512V25.666Z"
          fill="black"/>
    <path d="M71.5392 16.02H75.0232V30.632C75.0232 31.2733 75.1272 31.698 75.3352 31.906C75.5432 32.114 75.8292 32.218 76.1932 32.218C76.4706 32.218 76.7566 32.1833 77.0512 32.114C77.3459 32.0447 77.6059 31.958 77.8312 31.854L78.2992 34.506C77.8312 34.7313 77.2852 34.9047 76.6612 35.026C76.0372 35.1473 75.4739 35.208 74.9712 35.208C73.8792 35.208 73.0299 34.922 72.4232 34.35C71.8339 33.7607 71.5392 32.9287 71.5392 31.854V16.02Z"
          fill="black"/>
    <path d="M79.6612 30.97C79.6612 30.086 79.9038 29.3147 80.3892 28.656C80.8918 27.98 81.5852 27.46 82.4692 27.096C83.3532 26.732 84.3672 26.55 85.5112 26.55C86.0832 26.55 86.6638 26.602 87.2532 26.706C87.8425 26.7927 88.3538 26.9227 88.7872 27.096V26.368C88.7872 25.5013 88.5272 24.834 88.0072 24.366C87.5045 23.898 86.7505 23.664 85.7452 23.664C84.9998 23.664 84.2892 23.794 83.6132 24.054C82.9372 24.314 82.2265 24.6953 81.4812 25.198L80.3632 22.91C81.2645 22.3207 82.1832 21.8787 83.1192 21.584C84.0725 21.2893 85.0692 21.142 86.1092 21.142C88.0505 21.142 89.5585 21.6273 90.6332 22.598C91.7252 23.5687 92.2712 24.9553 92.2712 26.758V31.1C92.2712 31.4813 92.3318 31.75 92.4532 31.906C92.5745 32.0447 92.7912 32.1313 93.1032 32.166V35C92.7912 35.0693 92.5052 35.1127 92.2452 35.13C92.0025 35.1647 91.7945 35.182 91.6212 35.182C90.9278 35.182 90.3992 35.026 90.0352 34.714C89.6712 34.402 89.4545 34.0207 89.3852 33.57L89.3072 32.868C88.7005 33.648 87.9552 34.246 87.0712 34.662C86.2045 35.0607 85.3118 35.26 84.3932 35.26C83.4745 35.26 82.6598 35.078 81.9492 34.714C81.2385 34.3327 80.6752 33.8213 80.2592 33.18C79.8605 32.5213 79.6612 31.7847 79.6612 30.97ZM88.1372 31.672C88.5705 31.256 88.7872 30.8573 88.7872 30.476V29.098C87.8858 28.734 86.9758 28.552 86.0572 28.552C85.1385 28.552 84.3932 28.7513 83.8212 29.15C83.2492 29.5313 82.9632 30.0427 82.9632 30.684C82.9632 31.204 83.1712 31.672 83.5872 32.088C84.0032 32.504 84.6012 32.712 85.3812 32.712C85.9012 32.712 86.4038 32.6167 86.8892 32.426C87.3918 32.2353 87.8078 31.984 88.1372 31.672Z"
          fill="black"/>
    <path d="M108.969 35H105.485V27.356C105.485 26.264 105.294 25.4667 104.913 24.964C104.532 24.4613 104.003 24.21 103.327 24.21C102.859 24.21 102.382 24.3313 101.897 24.574C101.429 24.8167 101.004 25.1547 100.623 25.588C100.242 26.004 99.9642 26.4893 99.7909 27.044V35H96.3069V21.376H99.4529V23.898C99.9555 23.0487 100.684 22.3813 101.637 21.896C102.59 21.3933 103.665 21.142 104.861 21.142C105.71 21.142 106.404 21.298 106.941 21.61C107.478 21.9047 107.894 22.312 108.189 22.832C108.484 23.3347 108.683 23.9067 108.787 24.548C108.908 25.1893 108.969 25.8393 108.969 26.498V35Z"
          fill="black"/>
    <path d="M119.096 35.26C117.623 35.26 116.349 34.9393 115.274 34.298C114.217 33.6567 113.394 32.8073 112.804 31.75C112.215 30.6753 111.92 29.514 111.92 28.266C111.92 26.9833 112.206 25.8047 112.778 24.73C113.368 23.638 114.2 22.7713 115.274 22.13C116.349 21.4713 117.632 21.142 119.122 21.142C120.613 21.142 121.887 21.4713 122.944 22.13C124.002 22.7713 124.808 23.6293 125.362 24.704C125.934 25.7613 126.22 26.9053 126.22 28.136C126.22 28.5867 126.194 28.9767 126.142 29.306H115.612C115.699 30.3633 116.089 31.1953 116.782 31.802C117.493 32.4087 118.308 32.712 119.226 32.712C119.92 32.712 120.57 32.5473 121.176 32.218C121.8 31.8713 122.225 31.4207 122.45 30.866L125.44 31.698C124.938 32.738 124.132 33.596 123.022 34.272C121.913 34.9307 120.604 35.26 119.096 35.26ZM115.534 27.096H122.658C122.554 26.0733 122.164 25.25 121.488 24.626C120.83 23.9847 120.024 23.664 119.07 23.664C118.134 23.664 117.328 23.9847 116.652 24.626C115.994 25.25 115.621 26.0733 115.534 27.096Z"
          fill="black"/>
    <path d="M137.16 34.298C136.692 34.506 136.111 34.714 135.418 34.922C134.742 35.13 134.04 35.234 133.312 35.234C132.67 35.234 132.081 35.1213 131.544 34.896C131.006 34.6707 130.573 34.3153 130.244 33.83C129.932 33.3273 129.776 32.6773 129.776 31.88V24.054H127.982V21.376H129.776V16.956H133.26V21.376H136.12V24.054H133.26V30.71C133.26 31.178 133.381 31.516 133.624 31.724C133.884 31.932 134.196 32.036 134.56 32.036C134.924 32.036 135.279 31.9753 135.626 31.854C135.972 31.7327 136.25 31.6287 136.458 31.542L137.16 34.298Z"
          fill="black"/>
</svg>
