<svg width="52" height="56" viewBox="0 0 52 56" fill="none" xmlns="http://www.w3.org/2000/svg">
    <path d="M10.832 26.576C10.832 25.38 11.1267 24.2967 11.716 23.326C12.3053 22.3553 13.1113 21.584 14.134 21.012C15.1567 20.44 16.3007 20.154 17.566 20.154C18.97 20.154 20.1747 20.492 21.18 21.168C22.2027 21.844 22.9913 22.8147 23.546 24.08C24.1007 25.3453 24.378 26.862 24.378 28.63C24.378 31.9927 23.728 34.558 22.428 36.326C21.1453 38.1113 19.412 39.004 17.228 39.004C16.0667 39.004 14.992 38.7527 14.004 38.25C13.016 37.7473 12.184 37.028 11.508 36.092L13.51 33.908C13.926 34.5493 14.4633 35.052 15.122 35.416C15.798 35.7973 16.5173 35.988 17.28 35.988C18.4413 35.988 19.3687 35.5287 20.062 34.61C20.7553 33.674 21.1107 32.374 21.128 30.71C20.7813 31.334 20.2613 31.828 19.568 32.192C18.892 32.556 18.1207 32.738 17.254 32.738C16.0407 32.738 14.9487 32.4693 13.978 31.932C13.0073 31.3773 12.236 30.6407 11.664 29.722C11.1093 28.786 10.832 27.7373 10.832 26.576ZM17.566 23.092C16.942 23.092 16.37 23.2567 15.85 23.586C15.3473 23.898 14.94 24.3227 14.628 24.86C14.316 25.38 14.16 25.952 14.16 26.576C14.16 27.2 14.3073 27.772 14.602 28.292C14.914 28.7947 15.33 29.202 15.85 29.514C16.37 29.8087 16.942 29.956 17.566 29.956C18.19 29.956 18.7533 29.8087 19.256 29.514C19.776 29.202 20.192 28.7947 20.504 28.292C20.816 27.772 20.972 27.2 20.972 26.576C20.972 25.952 20.816 25.38 20.504 24.86C20.192 24.3227 19.776 23.898 19.256 23.586C18.736 23.2567 18.1727 23.092 17.566 23.092Z"
          fill="#2196F3"/>
    <path d="M35.8405 34.298C35.3725 34.506 34.7919 34.714 34.0985 34.922C33.4225 35.13 32.7205 35.234 31.9925 35.234C31.3512 35.234 30.7619 35.1213 30.2245 34.896C29.6872 34.6707 29.2539 34.3153 28.9245 33.83C28.6125 33.3273 28.4565 32.6773 28.4565 31.88V24.054H26.6625V21.376H28.4565V16.956H31.9405V21.376H34.8005V24.054H31.9405V30.71C31.9405 31.178 32.0619 31.516 32.3045 31.724C32.5645 31.932 32.8765 32.036 33.2405 32.036C33.6045 32.036 33.9599 31.9753 34.3065 31.854C34.6532 31.7327 34.9305 31.6287 35.1385 31.542L35.8405 34.298Z"
          fill="#2196F3"/>
    <path d="M51.0971 35H47.6131V27.356C47.6131 26.2987 47.4051 25.51 46.9891 24.99C46.5904 24.47 46.0357 24.21 45.3251 24.21C44.8917 24.21 44.4411 24.3313 43.9731 24.574C43.5224 24.8167 43.1064 25.1547 42.7251 25.588C42.3611 26.004 42.0924 26.4893 41.9191 27.044V35H38.4351V16.02H41.9191V23.898C42.4217 23.0313 43.1064 22.3553 43.9731 21.87C44.8397 21.3847 45.7844 21.142 46.8071 21.142C47.9684 21.142 48.8611 21.402 49.4851 21.922C50.1091 22.442 50.5337 23.1093 50.7591 23.924C50.9844 24.7387 51.0971 25.5967 51.0971 26.498V35Z"
          fill="#2196F3"/>
    <path d="M28 56C12.536 56 0 43.464 0 28C0 12.536 12.536 0 28 0C35.3333 0 42 1.5 47 7.43286C47.1739 7.63919 47.3332 7.82456 47.478 7.99014C48.9305 9.27422 49.0195 9.75198 47.478 7.99014C45.142 5.9249 39.2791 1.77387 31 1.5C17.0895 1.03985 4.36062 13.3651 4.5 28C4.63807 42.4975 16.5019 54.0315 31 54C37.5988 53.9856 41.7568 52.5738 47 48.5672C42.0082 53.1808 35.3333 56 28 56Z"
          fill="#2196F3"/>
</svg>
