<svg width="500" height="500" viewBox="0 0 500 500" fill="none" xmlns="http://www.w3.org/2000/svg">
    <rect width="500" height="500" fill="#E5E5E5"/>
    <rect width="500" height="500" fill="#F5F4FA"/>
    <path d="M210.58 179.609C210.58 176.342 211.384 173.382 212.994 170.73C214.603 168.078 216.804 165.971 219.597 164.408C222.389 162.845 225.513 162.064 228.969 162.064C232.803 162.064 236.092 162.987 238.838 164.834C241.63 166.681 243.784 169.333 245.299 172.79C246.813 176.247 247.571 180.391 247.571 185.221C247.571 194.409 245.796 201.417 242.246 206.248C238.743 211.126 234.01 213.564 228.046 213.564C224.874 213.564 221.94 212.878 219.242 211.504C216.544 210.131 214.272 208.166 212.426 205.608L217.893 199.641C219.029 201.394 220.496 202.767 222.295 203.762C224.141 204.803 226.105 205.324 228.188 205.324C231.359 205.324 233.891 204.069 235.785 201.559C237.678 199.002 238.648 195.45 238.696 190.904C237.749 192.609 236.329 193.959 234.436 194.953C232.59 195.948 230.483 196.445 228.117 196.445C224.803 196.445 221.821 195.711 219.171 194.243C216.52 192.727 214.414 190.715 212.852 188.205C211.337 185.647 210.58 182.782 210.58 179.609ZM228.969 170.091C227.265 170.091 225.703 170.541 224.283 171.44C222.91 172.293 221.798 173.453 220.946 174.921C220.094 176.342 219.668 177.905 219.668 179.609C219.668 181.314 220.07 182.877 220.875 184.298C221.727 185.671 222.863 186.784 224.283 187.636C225.703 188.442 227.265 188.844 228.969 188.844C230.673 188.844 232.211 188.442 233.584 187.636C235.004 186.784 236.14 185.671 236.992 184.298C237.844 182.877 238.27 181.314 238.27 179.609C238.27 177.905 237.844 176.342 236.992 174.921C236.14 173.453 235.004 172.293 233.584 171.44C232.164 170.541 230.625 170.091 228.969 170.091Z"
          fill="#AFB1B8" fill-opacity="0.3"/>
    <path d="M278.872 200.707C277.594 201.275 276.009 201.844 274.115 202.412C272.269 202.98 270.352 203.264 268.364 203.264C266.613 203.264 265.004 202.956 263.536 202.341C262.069 201.725 260.886 200.754 259.986 199.428C259.134 198.055 258.708 196.279 258.708 194.101V172.719H253.809V165.402H258.708V153.326H268.222V165.402H276.032V172.719H268.222V190.904C268.222 192.183 268.554 193.106 269.216 193.674C269.926 194.243 270.778 194.527 271.772 194.527C272.766 194.527 273.737 194.361 274.683 194.03C275.63 193.698 276.387 193.414 276.955 193.177L278.872 200.707Z"
          fill="#AFB1B8" fill-opacity="0.3"/>
    <path d="M320.534 202.625H311.02V181.741C311.02 178.852 310.452 176.697 309.316 175.276C308.228 173.856 306.713 173.145 304.772 173.145C303.589 173.145 302.358 173.477 301.08 174.14C299.85 174.803 298.714 175.726 297.672 176.91C296.678 178.047 295.945 179.373 295.471 180.888V202.625H285.957V150.769H295.471V172.293C296.844 169.925 298.714 168.078 301.08 166.752C303.447 165.426 306.027 164.763 308.819 164.763C311.991 164.763 314.428 165.473 316.132 166.894C317.836 168.315 318.996 170.138 319.611 172.364C320.227 174.59 320.534 176.934 320.534 179.396V202.625Z"
          fill="#AFB1B8" fill-opacity="0.3"/>
    <path d="M257.462 260C215.233 260 181 225.75 181 183.5C181 141.25 215.233 107 257.462 107C277.487 107 295.692 111.098 309.346 127.308C309.821 127.871 310.256 128.378 310.651 128.83C314.618 132.338 314.861 133.644 310.651 128.83C304.272 123.188 288.262 111.846 265.654 111.098C227.667 109.841 192.908 143.515 193.288 183.5C193.665 223.109 226.063 254.622 265.654 254.536C283.674 254.496 295.028 250.639 309.346 239.693C295.715 252.298 277.487 260 257.462 260Z"
          fill="#AFB1B8" fill-opacity="0.3"/>
    <path d="M154.281 377H147.496L121.727 337.555V377H114.941V325.812H121.727L147.566 365.434V325.812H154.281V377ZM163.527 357.629C163.527 353.902 164.254 350.551 165.707 347.574C167.184 344.598 169.223 342.301 171.824 340.684C174.449 339.066 177.438 338.258 180.789 338.258C185.969 338.258 190.152 340.051 193.34 343.637C196.551 347.223 198.156 351.992 198.156 357.945V358.402C198.156 362.105 197.441 365.434 196.012 368.387C194.605 371.316 192.578 373.602 189.93 375.242C187.305 376.883 184.281 377.703 180.859 377.703C175.703 377.703 171.52 375.91 168.309 372.324C165.121 368.738 163.527 363.992 163.527 358.086V357.629ZM170.066 358.402C170.066 362.621 171.039 366.008 172.984 368.562C174.953 371.117 177.578 372.395 180.859 372.395C184.164 372.395 186.789 371.105 188.734 368.527C190.68 365.926 191.652 362.293 191.652 357.629C191.652 353.457 190.656 350.082 188.664 347.504C186.695 344.902 184.07 343.602 180.789 343.602C177.578 343.602 174.988 344.879 173.02 347.434C171.051 349.988 170.066 353.645 170.066 358.402ZM232.434 377H225.684V325.812H232.434V377ZM249.906 338.961L250.082 343.18C252.871 339.898 256.633 338.258 261.367 338.258C266.688 338.258 270.309 340.297 272.23 344.375C273.496 342.547 275.137 341.07 277.152 339.945C279.191 338.82 281.594 338.258 284.359 338.258C292.703 338.258 296.945 342.676 297.086 351.512V377H290.582V351.898C290.582 349.18 289.961 347.152 288.719 345.816C287.477 344.457 285.391 343.777 282.461 343.777C280.047 343.777 278.043 344.504 276.449 345.957C274.855 347.387 273.93 349.32 273.672 351.758V377H267.133V352.074C267.133 346.543 264.426 343.777 259.012 343.777C254.746 343.777 251.828 345.594 250.258 349.227V377H243.754V338.961H249.906ZM330.414 377C330.039 376.25 329.734 374.914 329.5 372.992C326.477 376.133 322.867 377.703 318.672 377.703C314.922 377.703 311.84 376.648 309.426 374.539C307.035 372.406 305.84 369.711 305.84 366.453C305.84 362.492 307.34 359.422 310.34 357.242C313.363 355.039 317.605 353.938 323.066 353.938H329.395V350.949C329.395 348.676 328.715 346.871 327.355 345.535C325.996 344.176 323.992 343.496 321.344 343.496C319.023 343.496 317.078 344.082 315.508 345.254C313.938 346.426 313.152 347.844 313.152 349.508H306.613C306.613 347.609 307.281 345.781 308.617 344.023C309.977 342.242 311.805 340.836 314.102 339.805C316.422 338.773 318.965 338.258 321.73 338.258C326.113 338.258 329.547 339.359 332.031 341.562C334.516 343.742 335.805 346.754 335.898 350.598V368.105C335.898 371.598 336.344 374.375 337.234 376.438V377H330.414ZM319.621 372.043C321.66 372.043 323.594 371.516 325.422 370.461C327.25 369.406 328.574 368.035 329.395 366.348V358.543H324.297C316.328 358.543 312.344 360.875 312.344 365.539C312.344 367.578 313.023 369.172 314.383 370.32C315.742 371.469 317.488 372.043 319.621 372.043ZM344.547 357.664C344.547 351.734 345.918 347.023 348.66 343.531C351.402 340.016 355.035 338.258 359.559 338.258C364.199 338.258 367.82 339.898 370.422 343.18L370.738 338.961H376.68V376.086C376.68 381.008 375.215 384.887 372.285 387.723C369.379 390.559 365.465 391.977 360.543 391.977C357.801 391.977 355.117 391.391 352.492 390.219C349.867 389.047 347.863 387.441 346.48 385.402L349.855 381.5C352.645 384.945 356.055 386.668 360.086 386.668C363.25 386.668 365.711 385.777 367.469 383.996C369.25 382.215 370.141 379.707 370.141 376.473V373.203C367.539 376.203 363.988 377.703 359.488 377.703C355.035 377.703 351.426 375.91 348.66 372.324C345.918 368.738 344.547 363.852 344.547 357.664ZM351.086 358.402C351.086 362.691 351.965 366.066 353.723 368.527C355.48 370.965 357.941 372.184 361.105 372.184C365.207 372.184 368.219 370.32 370.141 366.594V349.227C368.148 345.594 365.16 343.777 361.176 343.777C358.012 343.777 355.539 345.008 353.758 347.469C351.977 349.93 351.086 353.574 351.086 358.402ZM402.309 377.703C397.152 377.703 392.957 376.016 389.723 372.641C386.488 369.242 384.871 364.707 384.871 359.035V357.84C384.871 354.066 385.586 350.703 387.016 347.75C388.469 344.773 390.484 342.453 393.062 340.789C395.664 339.102 398.477 338.258 401.5 338.258C406.445 338.258 410.289 339.887 413.031 343.145C415.773 346.402 417.145 351.066 417.145 357.137V359.844H391.375C391.469 363.594 392.559 366.629 394.645 368.949C396.754 371.246 399.426 372.395 402.66 372.395C404.957 372.395 406.902 371.926 408.496 370.988C410.09 370.051 411.484 368.809 412.68 367.262L416.652 370.355C413.465 375.254 408.684 377.703 402.309 377.703ZM401.5 343.602C398.875 343.602 396.672 344.562 394.891 346.484C393.109 348.383 392.008 351.055 391.586 354.5H410.641V354.008C410.453 350.703 409.562 348.148 407.969 346.344C406.375 344.516 404.219 343.602 401.5 343.602Z"
          fill="#AFB1B8" fill-opacity="0.3"/>
</svg>
