<svg aria-hidden="true" style="position: absolute; width: 0; height: 0; overflow: hidden;" version="1.1"
     xmlns="http://www.w3.org/2000/svg" xmlns:xlink="http://www.w3.org/1999/xlink">
    <defs>
        <symbol id="thumbs" viewBox="0 0 24 24">
            <path d="M1 21h4V9H1v12zm22-11c0-1.1-.9-2-2-2h-6.31l.95-4.57.03-.32c0-.41-.17-.79-.44-1.06L14.17 1 7.59 7.59C7.22 7.95 7 8.45 7 9v10c0 1.1.9 2 2 2h9c.83 0 1.54-.5 1.84-1.22l3.02-7.05c.09-.23.14-.47.14-.73v-2z"/>
        </symbol>

        <symbol id="birthday" viewBox="0 0 24 24">
            <path d="M12 6c1.11 0 2-.9 2-2 0-.38-.1-.73-.29-1.03L12 0l-1.71 2.97c-.19.3-.29.65-.29 1.03 0 1.1.9 2 2 2zm4.6 9.99l-1.07-1.07-1.08 1.07c-1.3 1.3-3.58 1.31-4.89 0l-1.07-1.07-1.09 1.07C6.75 16.64 5.88 17 4.96 17c-.73 0-1.4-.23-1.96-.61V21c0 .55.45 1 1 1h16c.55 0 1-.45 1-1v-4.61c-.56.38-1.23.61-1.96.61-.92 0-1.79-.36-2.44-1.01zM18 9h-5V7h-2v2H6c-1.66 0-3 1.34-3 3v1.54c0 1.08.88 1.96 1.96 1.96.52 0 1.02-.2 1.38-.57l2.14-2.13 2.13 2.13c.74.74 2.03.74 2.77 0l2.14-2.13 2.13 2.13c.37.37.86.57 1.38.57 1.08 0 1.96-.88 1.96-1.96V12C21 10.34 19.66 9 18 9z"/>
        </symbol>
        <symbol id="travel" viewBox="0 0 24 24">
            <path d="M19.3,16.9c0.4-0.7,0.7-1.5,0.7-2.4c0-2.5-2-4.5-4.5-4.5S11,12,11,14.5s2,4.5,4.5,4.5c0.9,0,1.7-0.3,2.4-0.7l3.2,3.2 l1.4-1.4L19.3,16.9z M15.5,17c-1.4,0-2.5-1.1-2.5-2.5s1.1-2.5,2.5-2.5s2.5,1.1,2.5,2.5S16.9,17,15.5,17z M12,20v2 C6.48,22,2,17.52,2,12C2,6.48,6.48,2,12,2c4.84,0,8.87,3.44,9.8,8h-2.07c-0.64-2.46-2.4-4.47-4.73-5.41V5c0,1.1-0.9,2-2,2h-2v2 c0,0.55-0.45,1-1,1H8v2h2v3H9l-4.79-4.79C4.08,10.79,4,11.38,4,12C4,16.41,7.59,20,12,20z"/>
        </symbol>
        <symbol id="hobby" viewBox="0 0 24 24">
            <path d="M21,23c-1.03,0-2.06-0.25-3-0.75h0c-1.89,1-4.11,1-6,0c-1.89,1-4.11,1-6,0C5.05,22.75,4.03,23,3,23H2l0-2h1 c1.04,0,2.08-0.35,3-1c1.83,1.3,4.17,1.3,6,0c1.83,1.3,4.17,1.3,6,0c0.91,0.65,1.96,1,3,1h1v2H21z M17,1.5c-1.1,0-2,0.9-2,2 s0.9,2,2,2s2-0.9,2-2S18.1,1.5,17,1.5z M14.43,8.48L12.18,10L16,13v3.84c0.53,0.38,1.03,0.78,1.49,1.17C16.81,18.59,15.94,19,15,19 c-1.2,0-2.27-0.66-3-1.5c-0.73,0.84-1.8,1.5-3,1.5c-0.33,0-0.65-0.05-0.96-0.14C5.19,16.9,3,14.72,3,13.28C3,12.25,4.01,12,4.85,12 c0.98,0,2.28,0.31,3.7,0.83l-0.53-3.1C7.91,9.06,8.2,8.35,8.8,7.94l2.15-1.45l-2-0.37L6.13,8.05L5,6.4L8.5,4l5.55,1.03 c0.45,0.09,0.93,0.37,1.22,0.89l0.88,1.55C17.01,8.98,18.64,10,20.5,10v2C17.91,12,15.64,10.58,14.43,8.48z M10.3,11.1l0.44,2.65 c0.92,0.42,2.48,1.27,3.26,1.75V14L10.3,11.1z"/>
        </symbol>
        <symbol id="music" viewBox="0 0 24 24">
            <path d="M12 3v10.55c-.59-.34-1.27-.55-2-.55-2.21 0-4 1.79-4 4s1.79 4 4 4 4-1.79 4-4V7h4V3h-6z"/>
        </symbol>

        <symbol id="recreation" viewBox="0 0 24 24">
            <g>
                <g>
                    <circle cx="12" cy="6" r="2"/>
                    <path d="M21,16v-2c-2.24,0-4.16-0.96-5.6-2.68l-1.34-1.6C13.68,9.26,13.12,9,12.53,9h-1.05c-0.59,0-1.15,0.26-1.53,0.72l-1.34,1.6 C7.16,13.04,5.24,14,3,14v2c2.77,0,5.19-1.17,7-3.25V15l-3.88,1.55C5.45,16.82,5,17.48,5,18.21C5,19.2,5.8,20,6.79,20H9v-0.5 c0-1.38,1.12-2.5,2.5-2.5h3c0.28,0,0.5,0.22,0.5,0.5S14.78,18,14.5,18h-3c-0.83,0-1.5,0.67-1.5,1.5V20h7.21 C18.2,20,19,19.2,19,18.21c0-0.73-0.45-1.39-1.12-1.66L14,15v-2.25C15.81,14.83,18.23,16,21,16z"/>
                </g>
            </g>
        </symbol>
        <symbol id="art" viewBox="0 0 24 24">
            <path d="M21 19V5c0-1.1-.9-2-2-2H5c-1.1 0-2 .9-2 2v14c0 1.1.9 2 2 2h14c1.1 0 2-.9 2-2zM8.5 13.5l2.5 3.01L14.5 12l4.5 6H5l3.5-4.5z"/>
        </symbol>
        <symbol id="health" viewBox="0 0 24 24">
            <path d="M10.5,13H8v-3h2.5V7.5h3V10H16v3h-2.5v2.5h-3V13z M12,2L4,5v6.09c0,5.05,3.41,9.76,8,10.91c4.59-1.15,8-5.86,8-10.91V5L12,2 z"/>
        </symbol>
        <symbol id="sports" viewBox="0 0 24 24">
            <path d="M20.49,3.51c-0.56-0.56-2.15-0.97-4.16-0.97c-3.08,0-7.15,0.96-9.98,3.79C1.66,11.03,2.1,19.07,3.51,20.49 c0.56,0.56,2.15,0.97,4.16,0.97c3.08,0,7.15-0.96,9.98-3.79C22.34,12.97,21.9,4.93,20.49,3.51z M7.76,7.76 c2.64-2.64,6.35-3.12,8.03-3.19c-2.05,0.94-4.46,2.45-6.61,4.61c-2.16,2.16-3.67,4.58-4.62,6.63C4.66,13.33,5.44,10.07,7.76,7.76z M16.24,16.24c-2.64,2.64-6.35,3.12-8.03,3.19c2.05-0.94,4.46-2.45,6.61-4.61c2.16-2.16,3.67-4.58,4.62-6.63 C19.34,10.67,18.56,13.93,16.24,16.24z"/>
        </symbol>


        <symbol id="technology" viewBox="0 0 24 24">
            <path d="M12,3c-0.46,0-0.93,0.04-1.4,0.14C7.84,3.67,5.64,5.9,5.12,8.66c-0.48,2.61,0.48,5.01,2.22,6.56C7.77,15.6,8,16.13,8,16.69 V19c0,1.1,0.9,2,2,2h0.28c0.35,0.6,0.98,1,1.72,1s1.38-0.4,1.72-1H14c1.1,0,2-0.9,2-2v-2.31c0-0.55,0.22-1.09,0.64-1.46 C18.09,13.95,19,12.08,19,10C19,6.13,15.87,3,12,3z M14,19h-4v-1h4V19z M14,17h-4v-1h4V17z M12.5,11.41V14h-1v-2.59L9.67,9.59 l0.71-0.71L12,10.5l1.62-1.62l0.71,0.71L12.5,11.41z"/>
        </symbol>

        <symbol id="entertainment" viewBox="0 0 24 24">
            <path d="M18 3v2h-2V3H8v2H6V3H4v18h2v-2h2v2h8v-2h2v2h2V3h-2zM8 17H6v-2h2v2zm0-4H6v-2h2v2zm0-4H6V7h2v2zm10 8h-2v-2h2v2zm0-4h-2v-2h2v2zm0-4h-2V7h2v2z"/>
        </symbol>





    </defs>
</svg>
